# MagicaVoxel @ ephtracy

# material
mtllib logo.mtl
usemtl palette

# normals
vn -1 0 0
vn 1 0 0
vn 0 0 1
vn 0 0 -1
vn 0 -1 0
vn 0 1 0

# texcoords
vt 0.302734 0.5
vt 0.841797 0.5
vt 0.884766 0.5
vt 0.919922 0.5
vt 0.958984 0.5
vt 0.962891 0.5
vt 0.978516 0.5
vt 0.994141 0.5

# verts
v -9.5 0 -2
v -9.5 0 -4
v -9.5 1 -2
v -9.5 1 -4
v -8.5 0 3
v -8.5 0 -2
v -8.5 1 3
v -8.5 1 -2
v -7.5 0 4
v -7.5 0 3
v -7.5 1 4
v -7.5 1 3
v -6.5 0 -0
v -6.5 0 -1
v -6.5 1 -0
v -6.5 1 -1
v -5.5 0 1
v -5.5 0 -0
v -5.5 0 -1
v -5.5 0 -2
v -5.5 1 1
v -5.5 1 -0
v -5.5 1 -1
v -5.5 1 -2
v -4.5 0 3
v -4.5 0 2
v -4.5 1 3
v -4.5 1 2
v -2.5 0 2
v -2.5 0 1
v -2.5 0 -2
v -2.5 0 -3
v -2.5 1 2
v -2.5 1 1
v -2.5 1 -2
v -2.5 1 -3
v -1.5 0 1
v -1.5 0 -2
v -1.5 1 1
v -1.5 1 -2
v 0.5 0 1
v 0.5 0 -0
v 0.5 1 1
v 0.5 1 -0
v 1.5 0 2
v 1.5 0 1
v 1.5 0 -3
v 1.5 0 -4
v 1.5 1 2
v 1.5 1 1
v 1.5 1 -3
v 1.5 1 -4
v 2.5 0 3
v 2.5 0 2
v 2.5 1 3
v 2.5 1 2
v 3.5 0 4
v 3.5 0 3
v 3.5 0 1
v 3.5 0 -0
v 3.5 0 -1
v 3.5 0 -2
v 3.5 1 4
v 3.5 1 3
v 3.5 1 1
v 3.5 1 -0
v 3.5 1 -1
v 3.5 1 -2
v 5.5 0 1
v 5.5 0 -0
v 5.5 0 -1
v 5.5 0 -2
v 5.5 1 1
v 5.5 1 -0
v 5.5 1 -1
v 5.5 1 -2
v 6.5 0 3
v 6.5 0 2
v 6.5 1 3
v 6.5 1 2
v 7.5 0 2
v 7.5 0 -3
v 7.5 1 2
v 7.5 1 -3
v -7.5 0 2
v -7.5 0 -3
v -7.5 1 2
v -7.5 1 -3
v -6.5 0 3
v -6.5 0 2
v -6.5 1 3
v -6.5 1 2
v -4.5 0 1
v -4.5 0 -0
v -4.5 0 -1
v -4.5 0 -2
v -4.5 1 1
v -4.5 1 -0
v -4.5 1 -1
v -4.5 1 -2
v -3.5 0 4
v -3.5 0 3
v -3.5 0 -0
v -3.5 0 -1
v -3.5 1 4
v -3.5 1 3
v -3.5 1 -0
v -3.5 1 -1
v -2.5 0 3
v -2.5 0 2
v -2.5 1 3
v -2.5 1 2
v -1.5 0 2
v -1.5 0 1
v -1.5 0 -3
v -1.5 0 -4
v -1.5 1 2
v -1.5 1 1
v -1.5 1 -3
v -1.5 1 -4
v -0.5 0 1
v -0.5 0 -0
v -0.5 1 1
v -0.5 1 -0
v 1.5 0 1
v 1.5 0 -2
v 1.5 1 1
v 1.5 1 -2
v 2.5 0 2
v 2.5 0 1
v 2.5 0 -2
v 2.5 0 -3
v 2.5 1 2
v 2.5 1 1
v 2.5 1 -2
v 2.5 1 -3
v 4.5 0 3
v 4.5 0 2
v 4.5 0 1
v 4.5 0 -0
v 4.5 0 -1
v 4.5 0 -2
v 4.5 1 3
v 4.5 1 2
v 4.5 1 1
v 4.5 1 -0
v 4.5 1 -1
v 4.5 1 -2
v 6.5 0 1
v 6.5 0 -0
v 6.5 0 -1
v 6.5 0 -2
v 6.5 1 1
v 6.5 1 -0
v 6.5 1 -1
v 6.5 1 -2
v 7.5 0 4
v 7.5 0 3
v 7.5 1 4
v 7.5 1 3
v 8.5 0 3
v 8.5 0 -2
v 8.5 1 3
v 8.5 1 -2
v 9.5 0 -2
v 9.5 0 -4
v 9.5 1 -2
v 9.5 1 -4
v -7.5 0 4
v -7.5 1 4
v -3.5 0 4
v -3.5 1 4
v 3.5 0 4
v 3.5 1 4
v 7.5 0 4
v 7.5 1 4
v -8.5 0 3
v -8.5 1 3
v -7.5 0 3
v -7.5 1 3
v -3.5 0 3
v -3.5 1 3
v -2.5 0 3
v -2.5 1 3
v 2.5 0 3
v 2.5 1 3
v 3.5 0 3
v 3.5 1 3
v 7.5 0 3
v 7.5 1 3
v 8.5 0 3
v 8.5 1 3
v -2.5 0 2
v -2.5 1 2
v -1.5 0 2
v -1.5 1 2
v 1.5 0 2
v 1.5 1 2
v 2.5 0 2
v 2.5 1 2
v -5.5 0 1
v -5.5 1 1
v -4.5 0 1
v -4.5 1 1
v -1.5 0 1
v -1.5 1 1
v -0.5 0 1
v -0.5 1 1
v 0.5 0 1
v 0.5 1 1
v 1.5 0 1
v 1.5 1 1
v 3.5 0 1
v 3.5 1 1
v 4.5 0 1
v 4.5 1 1
v 5.5 0 1
v 5.5 1 1
v 6.5 0 1
v 6.5 1 1
v -6.5 0 -0
v -6.5 1 -0
v -5.5 0 -0
v -5.5 1 -0
v -4.5 0 -0
v -4.5 1 -0
v -3.5 0 -0
v -3.5 1 -0
v -0.5 0 -0
v -0.5 1 -0
v 0.5 0 -0
v 0.5 1 -0
v 3.5 0 -1
v 3.5 1 -1
v 4.5 0 -1
v 4.5 1 -1
v 5.5 0 -1
v 5.5 1 -1
v 6.5 0 -1
v 6.5 1 -1
v -9.5 0 -2
v -9.5 1 -2
v -8.5 0 -2
v -8.5 1 -2
v -2.5 0 -2
v -2.5 1 -2
v -1.5 0 -2
v -1.5 1 -2
v 1.5 0 -2
v 1.5 1 -2
v 2.5 0 -2
v 2.5 1 -2
v 8.5 0 -2
v 8.5 1 -2
v 9.5 0 -2
v 9.5 1 -2
v -7.5 0 -3
v -7.5 1 -3
v -2.5 0 -3
v -2.5 1 -3
v 2.5 0 -3
v 2.5 1 -3
v 7.5 0 -3
v 7.5 1 -3
v -6.5 0 3
v -6.5 1 3
v -4.5 0 3
v -4.5 1 3
v 4.5 0 3
v 4.5 1 3
v 6.5 0 3
v 6.5 1 3
v -7.5 0 2
v -7.5 1 2
v -6.5 0 2
v -6.5 1 2
v -4.5 0 2
v -4.5 1 2
v -2.5 0 2
v -2.5 1 2
v 2.5 0 2
v 2.5 1 2
v 4.5 0 2
v 4.5 1 2
v 6.5 0 2
v 6.5 1 2
v 7.5 0 2
v 7.5 1 2
v -2.5 0 1
v -2.5 1 1
v -1.5 0 1
v -1.5 1 1
v 1.5 0 1
v 1.5 1 1
v 2.5 0 1
v 2.5 1 1
v 3.5 0 -0
v 3.5 1 -0
v 4.5 0 -0
v 4.5 1 -0
v 5.5 0 -0
v 5.5 1 -0
v 6.5 0 -0
v 6.5 1 -0
v -6.5 0 -1
v -6.5 1 -1
v -5.5 0 -1
v -5.5 1 -1
v -4.5 0 -1
v -4.5 1 -1
v -3.5 0 -1
v -3.5 1 -1
v -5.5 0 -2
v -5.5 1 -2
v -4.5 0 -2
v -4.5 1 -2
v 3.5 0 -2
v 3.5 1 -2
v 4.5 0 -2
v 4.5 1 -2
v 5.5 0 -2
v 5.5 1 -2
v 6.5 0 -2
v 6.5 1 -2
v -1.5 0 -3
v -1.5 1 -3
v -0.5 0 -3
v -0.5 1 -3
v 0.5 0 -3
v 0.5 1 -3
v 1.5 0 -3
v 1.5 1 -3
v -9.5 0 -4
v -9.5 1 -4
v -1.5 0 -4
v -1.5 1 -4
v 1.5 0 -4
v 1.5 1 -4
v 9.5 0 -4
v 9.5 1 -4
v -7.5 0 4
v -3.5 0 4
v 3.5 0 4
v 7.5 0 4
v -8.5 0 3
v -7.5 0 3
v -6.5 0 3
v -4.5 0 3
v -3.5 0 3
v -2.5 0 3
v 2.5 0 3
v 3.5 0 3
v 4.5 0 3
v 6.5 0 3
v 7.5 0 3
v 8.5 0 3
v -7.5 0 2
v -6.5 0 2
v -4.5 0 2
v -2.5 0 2
v -1.5 0 2
v 1.5 0 2
v 2.5 0 2
v 4.5 0 2
v 6.5 0 2
v 7.5 0 2
v -5.5 0 1
v -4.5 0 1
v -2.5 0 1
v -1.5 0 1
v -0.5 0 1
v 0.5 0 1
v 1.5 0 1
v 2.5 0 1
v 3.5 0 1
v 4.5 0 1
v 5.5 0 1
v 6.5 0 1
v -6.5 0 -0
v -5.5 0 -0
v -4.5 0 -0
v -3.5 0 -0
v -0.5 0 -0
v 0.5 0 -0
v 3.5 0 -0
v 4.5 0 -0
v 5.5 0 -0
v 6.5 0 -0
v -6.5 0 -1
v -5.5 0 -1
v -4.5 0 -1
v -3.5 0 -1
v 3.5 0 -1
v 4.5 0 -1
v 5.5 0 -1
v 6.5 0 -1
v -9.5 0 -2
v -8.5 0 -2
v -5.5 0 -2
v -4.5 0 -2
v -2.5 0 -2
v -1.5 0 -2
v 0.5 0 -2
v 1.5 0 -2
v 2.5 0 -2
v 3.5 0 -2
v 4.5 0 -2
v 5.5 0 -2
v 6.5 0 -2
v 8.5 0 -2
v 9.5 0 -2
v -7.5 0 -3
v -2.5 0 -3
v -1.5 0 -3
v -0.5 0 -3
v 0.5 0 -3
v 1.5 0 -3
v 2.5 0 -3
v 7.5 0 -3
v -9.5 0 -4
v -1.5 0 -4
v 1.5 0 -4
v 9.5 0 -4
v -7.5 1 4
v -3.5 1 4
v 3.5 1 4
v 7.5 1 4
v -8.5 1 3
v -7.5 1 3
v -6.5 1 3
v -4.5 1 3
v -3.5 1 3
v -2.5 1 3
v 2.5 1 3
v 3.5 1 3
v 4.5 1 3
v 6.5 1 3
v 7.5 1 3
v 8.5 1 3
v -7.5 1 2
v -6.5 1 2
v -4.5 1 2
v -2.5 1 2
v -1.5 1 2
v 1.5 1 2
v 2.5 1 2
v 4.5 1 2
v 6.5 1 2
v 7.5 1 2
v -5.5 1 1
v -4.5 1 1
v -2.5 1 1
v -1.5 1 1
v -0.5 1 1
v 0.5 1 1
v 1.5 1 1
v 2.5 1 1
v 3.5 1 1
v 4.5 1 1
v 5.5 1 1
v 6.5 1 1
v -6.5 1 -0
v -5.5 1 -0
v -4.5 1 -0
v -3.5 1 -0
v -0.5 1 -0
v 0.5 1 -0
v 3.5 1 -0
v 4.5 1 -0
v 5.5 1 -0
v 6.5 1 -0
v -6.5 1 -1
v -5.5 1 -1
v -4.5 1 -1
v -3.5 1 -1
v 3.5 1 -1
v 4.5 1 -1
v 5.5 1 -1
v 6.5 1 -1
v -9.5 1 -2
v -8.5 1 -2
v -5.5 1 -2
v -4.5 1 -2
v -2.5 1 -2
v -1.5 1 -2
v 0.5 1 -2
v 1.5 1 -2
v 2.5 1 -2
v 3.5 1 -2
v 4.5 1 -2
v 5.5 1 -2
v 6.5 1 -2
v 8.5 1 -2
v 9.5 1 -2
v -7.5 1 -3
v -2.5 1 -3
v -1.5 1 -3
v -0.5 1 -3
v 0.5 1 -3
v 1.5 1 -3
v 2.5 1 -3
v 7.5 1 -3
v -9.5 1 -4
v -1.5 1 -4
v 1.5 1 -4
v 9.5 1 -4

# faces
f 3/8/1 2/8/1 1/8/1
f 4/8/1 2/8/1 3/8/1
f 7/8/1 6/8/1 5/8/1
f 8/8/1 6/8/1 7/8/1
f 11/8/1 10/8/1 9/8/1
f 12/8/1 10/8/1 11/8/1
f 15/7/1 14/7/1 13/7/1
f 16/7/1 14/7/1 15/7/1
f 21/7/1 18/7/1 17/7/1
f 22/7/1 18/7/1 21/7/1
f 23/7/1 20/7/1 19/7/1
f 24/7/1 20/7/1 23/7/1
f 27/8/1 26/8/1 25/8/1
f 28/8/1 26/8/1 27/8/1
f 33/8/1 30/8/1 29/8/1
f 34/8/1 30/8/1 33/8/1
f 35/8/1 32/8/1 31/8/1
f 36/8/1 32/8/1 35/8/1
f 39/8/1 38/8/1 37/8/1
f 40/8/1 38/8/1 39/8/1
f 43/8/1 42/8/1 41/8/1
f 44/8/1 42/8/1 43/8/1
f 49/8/1 46/8/1 45/8/1
f 50/8/1 46/8/1 49/8/1
f 51/8/1 48/8/1 47/8/1
f 52/8/1 48/8/1 51/8/1
f 55/8/1 54/8/1 53/8/1
f 56/8/1 54/8/1 55/8/1
f 63/8/1 58/8/1 57/8/1
f 64/8/1 58/8/1 63/8/1
f 65/2/1 60/2/1 59/2/1
f 66/2/1 60/2/1 65/2/1
f 67/3/1 62/3/1 61/3/1
f 68/3/1 62/3/1 67/3/1
f 73/1/1 70/1/1 69/1/1
f 74/1/1 70/1/1 73/1/1
f 75/4/1 72/4/1 71/4/1
f 76/4/1 72/4/1 75/4/1
f 79/8/1 78/8/1 77/8/1
f 80/8/1 78/8/1 79/8/1
f 83/8/1 82/8/1 81/8/1
f 84/8/1 82/8/1 83/8/1
f 85/8/2 86/8/2 87/8/2
f 87/8/2 86/8/2 88/8/2
f 89/8/2 90/8/2 91/8/2
f 91/8/2 90/8/2 92/8/2
f 93/7/2 94/7/2 97/7/2
f 97/7/2 94/7/2 98/7/2
f 95/7/2 96/7/2 99/7/2
f 99/7/2 96/7/2 100/7/2
f 101/8/2 102/8/2 105/8/2
f 105/8/2 102/8/2 106/8/2
f 103/7/2 104/7/2 107/7/2
f 107/7/2 104/7/2 108/7/2
f 109/8/2 110/8/2 111/8/2
f 111/8/2 110/8/2 112/8/2
f 113/8/2 114/8/2 117/8/2
f 117/8/2 114/8/2 118/8/2
f 115/8/2 116/8/2 119/8/2
f 119/8/2 116/8/2 120/8/2
f 121/8/2 122/8/2 123/8/2
f 123/8/2 122/8/2 124/8/2
f 125/8/2 126/8/2 127/8/2
f 127/8/2 126/8/2 128/8/2
f 129/8/2 130/8/2 133/8/2
f 133/8/2 130/8/2 134/8/2
f 131/8/2 132/8/2 135/8/2
f 135/8/2 132/8/2 136/8/2
f 137/8/2 138/8/2 143/8/2
f 143/8/2 138/8/2 144/8/2
f 139/2/2 140/2/2 145/2/2
f 145/2/2 140/2/2 146/2/2
f 141/3/2 142/3/2 147/3/2
f 147/3/2 142/3/2 148/3/2
f 149/1/2 150/1/2 153/1/2
f 153/1/2 150/1/2 154/1/2
f 151/4/2 152/4/2 155/4/2
f 155/4/2 152/4/2 156/4/2
f 157/8/2 158/8/2 159/8/2
f 159/8/2 158/8/2 160/8/2
f 161/8/2 162/8/2 163/8/2
f 163/8/2 162/8/2 164/8/2
f 165/8/2 166/8/2 167/8/2
f 167/8/2 166/8/2 168/8/2
f 171/8/3 170/8/3 169/8/3
f 172/8/3 170/8/3 171/8/3
f 175/8/3 174/8/3 173/8/3
f 176/8/3 174/8/3 175/8/3
f 179/8/3 178/8/3 177/8/3
f 180/8/3 178/8/3 179/8/3
f 183/8/3 182/8/3 181/8/3
f 184/8/3 182/8/3 183/8/3
f 187/8/3 186/8/3 185/8/3
f 188/8/3 186/8/3 187/8/3
f 191/8/3 190/8/3 189/8/3
f 192/8/3 190/8/3 191/8/3
f 195/8/3 194/8/3 193/8/3
f 196/8/3 194/8/3 195/8/3
f 199/8/3 198/8/3 197/8/3
f 200/8/3 198/8/3 199/8/3
f 203/7/3 202/7/3 201/7/3
f 204/7/3 202/7/3 203/7/3
f 207/8/3 206/8/3 205/8/3
f 208/8/3 206/8/3 207/8/3
f 211/8/3 210/8/3 209/8/3
f 212/8/3 210/8/3 211/8/3
f 215/2/3 214/2/3 213/2/3
f 216/2/3 214/2/3 215/2/3
f 219/1/3 218/1/3 217/1/3
f 220/1/3 218/1/3 219/1/3
f 223/7/3 222/7/3 221/7/3
f 224/7/3 222/7/3 223/7/3
f 227/7/3 226/7/3 225/7/3
f 228/7/3 226/7/3 227/7/3
f 231/6/3 230/6/3 229/6/3
f 232/6/3 230/6/3 231/6/3
f 235/3/3 234/3/3 233/3/3
f 236/3/3 234/3/3 235/3/3
f 239/4/3 238/4/3 237/4/3
f 240/4/3 238/4/3 239/4/3
f 243/8/3 242/8/3 241/8/3
f 244/8/3 242/8/3 243/8/3
f 247/8/3 246/8/3 245/8/3
f 248/8/3 246/8/3 247/8/3
f 251/8/3 250/8/3 249/8/3
f 252/8/3 250/8/3 251/8/3
f 255/8/3 254/8/3 253/8/3
f 256/8/3 254/8/3 255/8/3
f 259/8/3 258/8/3 257/8/3
f 260/8/3 258/8/3 259/8/3
f 263/8/3 262/8/3 261/8/3
f 264/8/3 262/8/3 263/8/3
f 265/8/4 266/8/4 267/8/4
f 267/8/4 266/8/4 268/8/4
f 269/8/4 270/8/4 271/8/4
f 271/8/4 270/8/4 272/8/4
f 273/8/4 274/8/4 275/8/4
f 275/8/4 274/8/4 276/8/4
f 277/8/4 278/8/4 279/8/4
f 279/8/4 278/8/4 280/8/4
f 281/8/4 282/8/4 283/8/4
f 283/8/4 282/8/4 284/8/4
f 285/8/4 286/8/4 287/8/4
f 287/8/4 286/8/4 288/8/4
f 289/8/4 290/8/4 291/8/4
f 291/8/4 290/8/4 292/8/4
f 293/8/4 294/8/4 295/8/4
f 295/8/4 294/8/4 296/8/4
f 297/2/4 298/2/4 299/2/4
f 299/2/4 298/2/4 300/2/4
f 301/1/4 302/1/4 303/1/4
f 303/1/4 302/1/4 304/1/4
f 305/7/4 306/7/4 307/7/4
f 307/7/4 306/7/4 308/7/4
f 309/7/4 310/7/4 311/7/4
f 311/7/4 310/7/4 312/7/4
f 313/7/4 314/7/4 315/7/4
f 315/7/4 314/7/4 316/7/4
f 317/3/4 318/3/4 319/3/4
f 319/3/4 318/3/4 320/3/4
f 321/4/4 322/4/4 323/4/4
f 323/4/4 322/4/4 324/4/4
f 325/8/4 326/8/4 327/8/4
f 327/8/4 326/8/4 328/8/4
f 327/6/4 328/6/4 329/6/4
f 329/6/4 328/6/4 330/6/4
f 329/5/4 330/5/4 331/5/4
f 331/5/4 330/5/4 332/5/4
f 333/8/4 334/8/4 335/8/4
f 335/8/4 334/8/4 336/8/4
f 337/8/4 338/8/4 339/8/4
f 339/8/4 338/8/4 340/8/4
f 346/8/5 342/8/5 341/8/5
f 347/8/5 342/8/5 346/8/5
f 348/8/5 342/8/5 347/8/5
f 349/8/5 342/8/5 348/8/5
f 352/8/5 344/8/5 343/8/5
f 353/8/5 344/8/5 352/8/5
f 354/8/5 344/8/5 353/8/5
f 355/8/5 344/8/5 354/8/5
f 357/8/5 346/8/5 345/8/5
f 357/8/5 347/8/5 346/8/5
f 358/8/5 347/8/5 357/8/5
f 359/8/5 350/8/5 349/8/5
f 359/8/5 349/8/5 348/8/5
f 360/8/5 350/8/5 359/8/5
f 363/8/5 353/8/5 352/8/5
f 363/8/5 352/8/5 351/8/5
f 364/8/5 353/8/5 363/8/5
f 365/8/5 356/8/5 355/8/5
f 365/8/5 355/8/5 354/8/5
f 366/8/5 356/8/5 365/8/5
f 369/8/5 361/8/5 360/8/5
f 370/8/5 361/8/5 369/8/5
f 373/8/5 363/8/5 362/8/5
f 374/8/5 363/8/5 373/8/5
f 380/7/5 368/7/5 367/7/5
f 381/7/5 368/7/5 380/7/5
f 383/8/5 371/8/5 370/8/5
f 384/8/5 373/8/5 372/8/5
f 385/2/5 376/2/5 375/2/5
f 386/2/5 376/2/5 385/2/5
f 387/1/5 378/1/5 377/1/5
f 388/1/5 378/1/5 387/1/5
f 389/7/5 382/7/5 381/7/5
f 389/7/5 380/7/5 379/7/5
f 389/7/5 381/7/5 380/7/5
f 390/7/5 382/7/5 389/7/5
f 391/7/5 382/7/5 390/7/5
f 392/7/5 382/7/5 391/7/5
f 398/8/5 357/8/5 345/8/5
f 399/7/5 391/7/5 390/7/5
f 400/7/5 391/7/5 399/7/5
f 402/8/5 383/8/5 370/8/5
f 403/6/5 384/6/5 383/6/5
f 403/8/5 373/8/5 384/8/5
f 404/8/5 373/8/5 403/8/5
f 406/3/5 394/3/5 393/3/5
f 407/3/5 394/3/5 406/3/5
f 408/4/5 396/4/5 395/4/5
f 409/4/5 396/4/5 408/4/5
f 410/8/5 356/8/5 366/8/5
f 412/8/5 398/8/5 397/8/5
f 412/8/5 357/8/5 398/8/5
f 413/8/5 402/8/5 401/8/5
f 414/8/5 383/8/5 402/8/5
f 414/8/5 402/8/5 413/8/5
f 415/6/5 403/6/5 383/6/5
f 415/8/5 383/8/5 414/8/5
f 416/5/5 404/5/5 403/5/5
f 416/6/5 403/6/5 415/6/5
f 417/8/5 405/8/5 404/8/5
f 417/5/5 404/5/5 416/5/5
f 418/8/5 405/8/5 417/8/5
f 419/8/5 411/8/5 410/8/5
f 419/8/5 410/8/5 366/8/5
f 420/8/5 412/8/5 397/8/5
f 420/8/5 413/8/5 412/8/5
f 420/8/5 414/8/5 413/8/5
f 421/8/5 414/8/5 420/8/5
f 422/8/5 418/8/5 417/8/5
f 422/8/5 419/8/5 418/8/5
f 423/8/5 411/8/5 419/8/5
f 423/8/5 419/8/5 422/8/5
f 424/8/6 425/8/6 429/8/6
f 429/8/6 425/8/6 430/8/6
f 430/8/6 425/8/6 431/8/6
f 431/8/6 425/8/6 432/8/6
f 426/8/6 427/8/6 435/8/6
f 435/8/6 427/8/6 436/8/6
f 436/8/6 427/8/6 437/8/6
f 437/8/6 427/8/6 438/8/6
f 428/8/6 429/8/6 440/8/6
f 429/8/6 430/8/6 440/8/6
f 440/8/6 430/8/6 441/8/6
f 432/8/6 433/8/6 442/8/6
f 431/8/6 432/8/6 442/8/6
f 442/8/6 433/8/6 443/8/6
f 435/8/6 436/8/6 446/8/6
f 434/8/6 435/8/6 446/8/6
f 446/8/6 436/8/6 447/8/6
f 438/8/6 439/8/6 448/8/6
f 437/8/6 438/8/6 448/8/6
f 448/8/6 439/8/6 449/8/6
f 443/8/6 444/8/6 452/8/6
f 452/8/6 444/8/6 453/8/6
f 445/8/6 446/8/6 456/8/6
f 456/8/6 446/8/6 457/8/6
f 450/7/6 451/7/6 463/7/6
f 463/7/6 451/7/6 464/7/6
f 453/8/6 454/8/6 466/8/6
f 455/8/6 456/8/6 467/8/6
f 458/2/6 459/2/6 468/2/6
f 468/2/6 459/2/6 469/2/6
f 460/1/6 461/1/6 470/1/6
f 470/1/6 461/1/6 471/1/6
f 464/7/6 465/7/6 472/7/6
f 462/7/6 463/7/6 472/7/6
f 463/7/6 464/7/6 472/7/6
f 472/7/6 465/7/6 473/7/6
f 473/7/6 465/7/6 474/7/6
f 474/7/6 465/7/6 475/7/6
f 428/8/6 440/8/6 481/8/6
f 473/7/6 474/7/6 482/7/6
f 482/7/6 474/7/6 483/7/6
f 453/8/6 466/8/6 485/8/6
f 466/6/6 467/6/6 486/6/6
f 467/8/6 456/8/6 486/8/6
f 486/8/6 456/8/6 487/8/6
f 476/3/6 477/3/6 489/3/6
f 489/3/6 477/3/6 490/3/6
f 478/4/6 479/4/6 491/4/6
f 491/4/6 479/4/6 492/4/6
f 449/8/6 439/8/6 493/8/6
f 480/8/6 481/8/6 495/8/6
f 481/8/6 440/8/6 495/8/6
f 484/8/6 485/8/6 496/8/6
f 485/8/6 466/8/6 497/8/6
f 496/8/6 485/8/6 497/8/6
f 466/6/6 486/6/6 498/6/6
f 497/8/6 466/8/6 498/8/6
f 486/5/6 487/5/6 499/5/6
f 498/6/6 486/6/6 499/6/6
f 487/8/6 488/8/6 500/8/6
f 499/5/6 487/5/6 500/5/6
f 500/8/6 488/8/6 501/8/6
f 493/8/6 494/8/6 502/8/6
f 449/8/6 493/8/6 502/8/6
f 480/8/6 495/8/6 503/8/6
f 495/8/6 496/8/6 503/8/6
f 496/8/6 497/8/6 503/8/6
f 503/8/6 497/8/6 504/8/6
f 500/8/6 501/8/6 505/8/6
f 501/8/6 502/8/6 505/8/6
f 502/8/6 494/8/6 506/8/6
f 505/8/6 502/8/6 506/8/6
